<svg version="1.1" viewBox="0.0 0.0 960.0 379.84251968503935" fill="none" stroke="none" stroke-linecap="square" stroke-miterlimit="10" xmlns:xlink="http://www.w3.org/1999/xlink" xmlns="http://www.w3.org/2000/svg"><clipPath id="p.0"><path d="m0 0l960.0 0l0 379.84253l-960.0 0l0 -379.84253z" clip-rule="nonzero"/></clipPath><g clip-path="url(#p.0)"><path fill="#000000" fill-opacity="0.0" d="m0 0l960.0 0l0 379.84253l-960.0 0z" fill-rule="evenodd"/><g filter="url(#shadowFilter-p.1)"><use xlink:href="#p.1" transform="matrix(1.0 0.0 0.0 1.0 2.8007415210793964 -1.0751036796669948)"/></g><defs><filter id="shadowFilter-p.1" filterUnits="userSpaceOnUse"><feGaussianBlur in="SourceAlpha" stdDeviation="2.0" result="blur"/><feComponentTransfer in="blur" color-interpolation-filters="sRGB"><feFuncR type="linear" slope="0" intercept="0.0"/><feFuncG type="linear" slope="0" intercept="0.0"/><feFuncB type="linear" slope="0" intercept="0.0"/><feFuncA type="linear" slope="0.5" intercept="0"/></feComponentTransfer></filter></defs><g id="p.1"><path fill="#0b5394" d="m192.83202 232.26115l129.84383 -9.032806l129.84384 9.032806l-129.84384 9.032806z" fill-rule="evenodd"/></g><path fill="#000000" fill-opacity="0.0" d="m31.533148 321.28232c7.10404 -3.2879944 32.06653 -20.550934 42.62423 -19.727936c10.557701 0.8229675 10.361 24.42508 20.722 24.665833c10.361 0.24075317 31.428368 -21.285004 41.444 -23.221313c10.015625 -1.9362793 10.360992 55.62207 18.649796 11.603577c8.288803 -44.018494 7.598068 -276.9199 31.083008 -275.7145c23.484924 1.2053604 86.14859 238.00844 109.8266 282.9467c23.678009 44.938232 21.067352 -14.470642 32.241455 -13.3172c11.174133 1.1534424 23.622742 20.289703 34.803192 20.237793c11.18045 -0.051940918 22.23761 -20.237793 32.27954 -20.549377c10.041931 -0.31155396 23.309967 15.56662 27.971985 18.679962" fill-rule="evenodd"/><path stroke="#0b5394" stroke-width="8.0" stroke-linejoin="round" stroke-linecap="butt" d="m31.533148 321.28232c7.10404 -3.2879944 32.06653 -20.550934 42.62423 -19.727936c10.557701 0.8229675 10.361 24.42508 20.722 24.665833c10.361 0.24075317 31.428368 -21.285004 41.444 -23.221313c10.015625 -1.9362793 10.360992 55.62207 18.649796 11.603577c8.288803 -44.018494 7.598068 -276.9199 31.083008 -275.7145c23.484924 1.2053604 86.14859 238.00844 109.8266 282.9467c23.678009 44.938232 21.067352 -14.470642 32.241455 -13.3172c11.174133 1.1534424 23.622742 20.289703 34.803192 20.237793c11.18045 -0.051940918 22.23761 -20.237793 32.27954 -20.549377c10.041931 -0.31155396 23.309967 15.56662 27.971985 18.679962" fill-rule="evenodd"/><path fill="#000000" fill-opacity="0.0" d="m31.533148 321.65894c7.10404 -2.817627 32.06653 -17.610992 42.62423 -16.905731c10.557701 0.7052307 10.361 20.930939 20.722 21.137238c10.361 0.20632935 31.428368 -18.240051 41.444 -19.899353c10.015625 -1.6593018 10.360992 47.66501 18.649796 9.9436035c8.288803 -37.721405 7.598068 -237.3049 31.083008 -236.27197c23.484924 1.0329285 86.086945 204.27078 109.8266 242.46954c23.739655 38.19876 21.437195 -14.265442 32.611298 -13.277039c11.174133 0.98843384 23.314545 18.941284 34.43335 19.207611c11.118805 0.2663269 22.23761 -17.342682 32.27954 -17.60965c10.041931 -0.2669983 23.309967 13.339722 27.971985 16.00766" fill-rule="evenodd"/><path stroke="#3d85c6" stroke-width="8.0" stroke-linejoin="round" stroke-linecap="butt" d="m31.533148 321.65894c7.10404 -2.817627 32.06653 -17.610992 42.62423 -16.905731c10.557701 0.7052307 10.361 20.930939 20.722 21.137238c10.361 0.20632935 31.428368 -18.240051 41.444 -19.899353c10.015625 -1.6593018 10.360992 47.66501 18.649796 9.9436035c8.288803 -37.721405 7.598068 -237.3049 31.083008 -236.27197c23.484924 1.0329285 86.086945 204.27078 109.8266 242.46954c23.739655 38.19876 21.437195 -14.265442 32.611298 -13.277039c11.174133 0.98843384 23.314545 18.941284 34.43335 19.207611c11.118805 0.2663269 22.23761 -17.342682 32.27954 -17.60965c10.041931 -0.2669983 23.309967 13.339722 27.971985 16.00766" fill-rule="evenodd"/><path fill="#000000" fill-opacity="0.0" d="m31.533148 328.1154c7.0723133 -3.1145935 31.876165 -19.280823 42.43387 -18.687592c10.557701 0.5932007 10.465248 21.965454 20.912361 22.246948c10.447113 0.28146362 31.754692 -19.161926 41.770325 -20.558167c10.01564 -1.3962402 10.089066 43.278656 18.323471 12.180634c8.234421 -31.097992 7.598068 -199.63742 31.083008 -198.76865c23.484924 0.86878204 86.20117 172.3204 109.8266 203.98132c23.625427 31.66095 20.751923 -14.847534 31.926025 -14.015717c11.174103 0.83184814 23.807617 19.006775 35.11862 19.006775c11.310974 0 22.705353 -18.782196 32.747284 -19.006775c10.041931 -0.22457886 22.920197 14.716064 27.504242 17.659271" fill-rule="evenodd"/><path stroke="#6fa8dc" stroke-width="8.0" stroke-linejoin="round" stroke-linecap="butt" d="m31.533148 328.1154c7.0723133 -3.1145935 31.876165 -19.280823 42.43387 -18.687592c10.557701 0.5932007 10.465248 21.965454 20.912361 22.246948c10.447113 0.28146362 31.754692 -19.161926 41.770325 -20.558167c10.01564 -1.3962402 10.089066 43.278656 18.323471 12.180634c8.234421 -31.097992 7.598068 -199.63742 31.083008 -198.76865c23.484924 0.86878204 86.20117 172.3204 109.8266 203.98132c23.625427 31.66095 20.751923 -14.847534 31.926025 -14.015717c11.174103 0.83184814 23.807617 19.006775 35.11862 19.006775c11.310974 0 22.705353 -18.782196 32.747284 -19.006775c10.041931 -0.22457886 22.920197 14.716064 27.504242 17.659271" fill-rule="evenodd"/><g filter="url(#shadowFilter-p.2)"><use xlink:href="#p.2" transform="matrix(1.0 0.0 0.0 1.0 -2.954423238599081 -0.5209446303800648)"/></g><defs><filter id="shadowFilter-p.2" filterUnits="userSpaceOnUse"><feGaussianBlur in="SourceAlpha" stdDeviation="2.0" result="blur"/><feComponentTransfer in="blur" color-interpolation-filters="sRGB"><feFuncR type="linear" slope="0" intercept="0.0"/><feFuncG type="linear" slope="0" intercept="0.0"/><feFuncB type="linear" slope="0" intercept="0.0"/><feFuncA type="linear" slope="0.5" intercept="0"/></feComponentTransfer></filter></defs><g id="p.2"><path fill="#0b5394" d="m12.0 232.25853l59.91207 -9.032806l59.91207 9.032806l-59.91207 9.032806z" fill-rule="evenodd"/></g><g filter="url(#shadowFilter-p.3)"><use xlink:href="#p.3" transform=""/></g><defs><filter id="shadowFilter-p.3" filterUnits="userSpaceOnUse"><feGaussianBlur in="SourceAlpha" stdDeviation="2.0" result="blur"/><feComponentTransfer in="blur" color-interpolation-filters="sRGB"><feFuncR type="linear" slope="0" intercept="1.0"/><feFuncG type="linear" slope="0" intercept="1.0"/><feFuncB type="linear" slope="0" intercept="1.0"/><feFuncA type="linear" slope="0.5" intercept="0"/></feComponentTransfer></filter></defs><g id="p.3"><path fill="#a10000" d="m131.82417 232.26416l25.111542 -5.1112213l5.392395 -23.80217l5.3923798 23.80217l25.111557 5.1112213l-25.111557 5.111206l-5.3923798 23.802185l-5.392395 -23.802185z" fill-rule="evenodd"/></g><path fill="#000000" fill-opacity="0.0" d="m439.78152 -9.471536l596.40955 0l0 307.40158l-596.40955 0z" fill-rule="evenodd"/><path fill="#0b5394" d="m522.1409 29.725958l0 16.171877l-26.28128 0l0 71.390625l-19.234375 0l0 -71.390625l-26.234375 0l0 -16.171877l71.75003 0zm71.57953 0l0 16.171877l-42.28125 0l0 20.25l36.640625 0l0 14.96875l-36.640625 0l0 36.171875l-19.296875 0l0 -87.5625l61.578125 0zm53.004272 0q13.40625 0 20.359375 5.312502q6.953125 5.296875 6.953125 16.3125q0 6.765625 -3.125 11.203125q-3.109375 4.421875 -8.734375 7.125q7.953125 2.390625 12.0 8.078125q4.046875 5.6875 4.046875 14.140625q0 12.09375 -8.75 18.75q-8.734375 6.640625 -21.609375 6.640625l-43.015625 0l0 -87.5625l41.875 0zm-2.765625 35.453125q5.15625 0 8.296875 -2.625q3.15625 -2.640625 3.15625 -7.796875q0 -5.140625 -3.234375 -7.59375q-3.234375 -2.46875 -9.53125 -2.46875l-18.5 0l0 20.484375l19.8125 0zm1.265625 37.140625q6.40625 0 10.0625 -2.8125q3.65625 -2.828125 3.65625 -8.6875q0 -6.171875 -3.453125 -9.34375q-3.4375 -3.171875 -9.96875 -3.171875l-21.375 0l0 24.015625l21.078125 0zm74.98749 -50.125q14.90625 0 23.890625 9.1875q8.984375 9.1875 8.984375 24.28125q0 15.15625 -9.078125 24.265625q-9.0625 9.09375 -23.796875 9.09375q-14.734375 0 -23.75 -9.15625q-9.015686 -9.171875 -9.015686 -24.203125q0 -15.03125 8.859436 -24.25q8.875 -9.21875 23.90625 -9.21875zm-15.34375 33.46875q0 10.0 4.109375 15.125q4.109375 5.125 11.234375 5.125q7.421875 0 11.4375 -5.296875q4.015625 -5.3125 4.015625 -14.953125q0 -9.453125 -3.90625 -14.90625q-3.890625 -5.453125 -11.671875 -5.453125q-7.0 0 -11.109375 5.0625q-4.109375 5.0625 -4.109375 15.296875zm90.26703 -33.46875q14.90625 0 23.890625 9.1875q8.984375 9.1875 8.984375 24.28125q0 15.15625 -9.078125 24.265625q-9.0625 9.09375 -23.796875 9.09375q-14.734375 0 -23.75 -9.15625q-9.015625 -9.171875 -9.015625 -24.203125q0 -15.03125 8.859375 -24.25q8.875 -9.21875 23.90625 -9.21875zm-15.34375 33.46875q0 10.0 4.109375 15.125q4.109375 5.125 11.234375 5.125q7.421875 0 11.4375 -5.296875q4.015625 -5.3125 4.015625 -14.953125q0 -9.453125 -3.90625 -14.90625q-3.890625 -5.453125 -11.671875 -5.453125q-7.0 0 -11.109375 5.0625q-4.109375 5.0625 -4.109375 15.296875zm85.470215 -33.46875q12.9375 0 19.96875 5.125q7.046875 5.109375 8.0 15.046875l-16.59375 0q-0.359375 -4.484375 -3.359375 -6.515625q-2.984375 -2.046875 -8.5625 -2.046875q-5.015625 0 -7.328125 1.5q-2.3125 1.5 -2.3125 4.375q0 2.9375 3.03125 4.828125q3.03125 1.875 12.1875 3.609375q14.609375 2.8125 19.609375 7.25q5.0 4.4375 5.0 11.625q0 10.78125 -7.875 16.40625q-7.875 5.625 -21.046875 5.625q-13.171875 0 -21.234375 -5.59375q-8.046875 -5.609375 -8.59375 -16.75l16.59375 0q0 5.03125 3.796875 7.859375q3.8125 2.8125 9.5625 2.8125q5.078125 0 8.25 -2.1875q3.1875 -2.1875 3.1875 -5.90625q0 -3.296875 -4.140625 -5.390625q-4.125 -2.09375 -15.140625 -4.375q-10.90625 -2.15625 -15.765625 -6.15625q-4.84375 -4.015625 -4.84375 -10.84375q0 -10.0625 7.125 -15.171875q7.125 -5.125 20.484375 -5.125zm61.926697 -17.3125l0 18.984375l12.75 0l0 11.671875l-12.75 0l0 31.8125q0 3.890625 1.46875 5.421875q1.46875 1.515625 5.890625 1.515625q1.5 0 2.875 -0.109375q1.390625 -0.125 2.515625 -0.359375l0 13.59375q-2.15625 0.359375 -4.828125 0.46875q-2.65625 0.125 -5.234375 0.125q-11.3125 0 -15.71875 -3.859375q-4.390625 -3.859375 -4.390625 -10.8125l0 -37.796875l-10.546875 0l0 -11.671875l10.546875 0l0 -18.984375l17.421875 0z" fill-rule="nonzero"/><path fill="#000000" fill-opacity="0.0" d="m460.2419 140.76247l635.5906 0l0 184.00002l-635.5906 0z" fill-rule="evenodd"/><path fill="#3d85c6" d="m500.6638 163.53809l0 3.265625l-13.953125 0l0 36.71875l-3.796875 0l0 -36.71875l-13.953125 0l0 -3.265625l31.703125 0zm5.3359375 0l0 5.671875l-3.53125 0l0 -5.671875l3.53125 0zm0 11.078125l0 28.90625l-3.53125 0l0 -28.90625l3.53125 0zm19.660187 -0.8125q3.0 0 5.21875 1.4375q2.21875 1.421875 3.0625 4.1875q1.34375 -2.765625 3.75 -4.1875q2.421875 -1.4375 5.46875 -1.4375q4.8125 0 7.171875 2.5625q2.359375 2.546875 2.359375 7.296875l0 19.859375l-3.515625 0l0 -19.65625q0 -3.671875 -1.640625 -5.390625q-1.640625 -1.71875 -5.171875 -1.71875q-3.859375 0 -5.859375 2.65625q-1.984375 2.640625 -1.984375 7.484375l0 16.625l-3.5625 0l0 -19.796875q0 -3.25 -1.5 -5.109375q-1.5 -1.859375 -4.546875 -1.859375q-4.203125 0 -6.40625 2.859375q-2.203125 2.84375 -2.203125 7.53125l0 16.375l-3.53125 0l0 -28.90625l3.265625 0l0 4.875l0.15625 0q1.5 -2.84375 3.859375 -4.265625q2.375 -1.421875 5.609375 -1.421875zm45.351562 0q5.890625 0 9.296875 4.265625q3.421875 4.265625 3.421875 11.375l0 0.5625l-22.234375 0q0.09375 5.03125 2.703125 8.203125q2.609375 3.171875 6.8125 3.171875q3.53125 0 5.796875 -1.8125q2.28125 -1.8125 3.28125 -5.5625l3.53125 0q-1.234375 5.21875 -4.328125 7.796875q-3.078125 2.5625 -8.28125 2.5625q-6.125 0 -9.578125 -4.09375q-3.453125 -4.109375 -3.453125 -11.1875q0 -6.734375 3.46875 -11.0q3.46875 -4.28125 9.5625 -4.28125zm9.1875 13.25q-0.125 -4.28125 -2.6875 -7.28125q-2.5625 -3.015625 -6.546875 -3.015625q-3.75 0 -6.3125 2.796875q-2.546875 2.78125 -3.15625 7.5l18.703125 0zm21.957031 -24.359375q6.4375 0 10.59375 3.328125q4.15625 3.3125 4.15625 9.109375l-3.78125 0q-0.25 -4.375 -3.328125 -6.78125q-3.0625 -2.40625 -7.578125 -2.40625q-4.734375 0 -7.390625 2.046875q-2.640625 2.03125 -2.640625 5.890625q0 2.265625 1.34375 3.78125q1.359375 1.515625 4.9375 2.390625l9.109375 2.25q5.625 1.390625 8.1875 3.96875q2.578125 2.5625 2.578125 6.640625q0 5.03125 -3.859375 8.25q-3.84375 3.203125 -11.421875 3.203125q-7.46875 0 -11.734375 -3.359375q-4.265625 -3.359375 -4.265625 -9.734375l0 -0.90625l3.828125 0l0 0.28125q0 5.296875 3.328125 7.890625q3.328125 2.578125 9.671875 2.578125q4.125 0 7.375 -2.171875q3.25 -2.171875 3.25 -5.953125q0 -5.171875 -7.78125 -7.109375q-7.828125 -1.90625 -9.328125 -2.296875q-4.78125 -1.171875 -6.90625 -3.5q-2.125 -2.328125 -2.125 -6.09375q0 -4.65625 3.546875 -7.96875q3.546875 -3.328125 10.234375 -3.328125zm40.257812 0.84375q5.171875 0 8.40625 3.03125q3.234375 3.015625 3.234375 8.40625q0 5.359375 -3.234375 8.390625q-3.234375 3.015625 -8.40625 3.015625l-14.171875 0l0 17.140625l-3.828125 0l0 -39.984375l18.0 0zm-0.84375 19.609375q3.90625 0 6.296875 -2.109375q2.390625 -2.125 2.390625 -6.0625q0 -3.890625 -2.3125 -6.03125q-2.3125 -2.140625 -6.921875 -2.140625l-12.78125 0l0 16.34375l13.328125 0zm34.882812 -20.453125q5.640625 0 9.9375 2.65625q4.3125 2.65625 6.59375 7.53125q2.28125 4.859375 2.28125 10.65625q0 9.015625 -5.109375 14.921875q-5.09375 5.90625 -13.703125 5.90625q-8.640625 0 -13.75 -5.828125q-5.109375 -5.84375 -5.109375 -15.0q0 -9.171875 5.125 -15.0q5.125 -5.84375 13.734375 -5.84375zm-15.0625 20.84375q0 7.546875 3.96875 12.5625q3.984375 5.015625 11.09375 5.015625q7.03125 0 11.015625 -4.984375q4.0 -5.0 4.0 -12.59375q0 -7.53125 -3.96875 -12.5625q-3.96875 -5.03125 -11.09375 -5.03125q-6.953125 0 -10.984375 4.921875q-4.03125 4.921875 -4.03125 12.671875zm65.1875 -20.0l0 3.265625l-13.953125 0l0 36.71875l-3.796875 0l0 -36.71875l-13.953125 0l0 -3.265625l31.703125 0z" fill-rule="nonzero"/><path fill="#3d85c6" d="m498.63254 230.53809l0 3.265625l-21.546875 0l0 14.4375l19.140625 0l0 3.25l-19.140625 0l0 19.03125l-3.828125 0l0 -39.984375l25.375 0zm15.4844055 10.703125l0.875 0l0 3.515625l-0.40625 0q-4.6875305 0 -7.5156555 3.0q-2.828125 3.0 -2.828125 7.453125l0 15.3125l-3.53125 0l0 -28.90625l3.265625 0l0 6.78125l0.109375 0q1.3125 -3.390625 3.96875 -5.265625q2.671875 -1.890625 6.0625305 -1.890625zm15.75 -0.4375q6.171875 0 9.921875 4.296875q3.75 4.28125 3.75 10.984375q0 4.046875 -1.546875 7.546875q-1.546875 3.5 -4.703125 5.625q-3.15625 2.109375 -7.421875 2.109375q-6.125 0 -9.890625 -4.296875q-3.75 -4.3125 -3.75 -10.984375q0 -6.703125 3.734375 -10.984375q3.75 -4.296875 9.90625 -4.296875zm-10.125 15.28125q0 5.109375 2.765625 8.703125q2.765625 3.59375 7.359375 3.59375q4.59375 0 7.359375 -3.609375q2.78125 -3.609375 2.78125 -8.6875q0 -5.09375 -2.78125 -8.703125q-2.765625 -3.625 -7.421875 -3.625q-4.484375 0 -7.28125 3.578125q-2.78125 3.578125 -2.78125 8.75zm41.92578 -15.28125q5.546875 0 8.046875 2.703125q2.5 2.703125 2.5 8.140625l0 18.875l-3.515625 0l0 -18.265625q0 -4.1875 -1.828125 -6.34375q-1.8125 -2.15625 -5.5 -2.15625q-2.90625 0 -5.0 1.40625q-2.09375 1.40625 -3.09375 3.78125q-0.984375 2.359375 -0.984375 4.671875l0 16.90625l-3.53125 0l0 -28.90625l3.53125 0l0 5.0l0.109375 0q1.0 -2.59375 3.546875 -4.203125q2.546875 -1.609375 5.71875 -1.609375zm22.828125 -7.859375l0 8.671875l5.875 0l0 2.984375l-5.875 0l0 19.71875q0 2.203125 0.828125 2.890625q0.84375 0.6875 2.15625 0.6875q0.546875 0 1.296875 -0.03125q0.75 -0.046875 1.59375 -0.140625l0 3.015625q-0.765625 0.0625 -1.546875 0.078125q-0.765625 0.03125 -1.5625 0.03125q-3.53125 0 -4.921875 -1.34375q-1.375 -1.34375 -1.375 -4.8125l0 -20.09375l-5.046875 0l0 -2.984375l5.046875 0l0 -8.671875l3.53125 0zm24.960938 20.546875l0 3.25l-14.0 0l0 -3.25l14.0 0zm18.320312 -12.6875q5.890625 0 9.296875 4.265625q3.421875 4.265625 3.421875 11.375l0 0.5625l-22.234375 0q0.09375 5.03125 2.703125 8.203125q2.609375 3.171875 6.8125 3.171875q3.53125 0 5.796875 -1.8125q2.28125 -1.8125 3.28125 -5.5625l3.53125 0q-1.234375 5.21875 -4.328125 7.796875q-3.078125 2.5625 -8.28125 2.5625q-6.125 0 -9.578125 -4.09375q-3.453125 -4.109375 -3.453125 -11.1875q0 -6.734375 3.46875 -11.0q3.46875 -4.28125 9.5625 -4.28125zm9.1875 13.25q-0.125 -4.28125 -2.6875 -7.28125q-2.5625 -3.015625 -6.546875 -3.015625q-3.75 0 -6.3125 2.796875q-2.546875 2.78125 -3.15625 7.5l18.703125 0zm21.144531 -13.25q5.546875 0 8.046875 2.703125q2.5 2.703125 2.5 8.140625l0 18.875l-3.515625 0l0 -18.265625q0 -4.1875 -1.828125 -6.34375q-1.8125 -2.15625 -5.5 -2.15625q-2.90625 0 -5.0 1.40625q-2.09375 1.40625 -3.09375 3.78125q-0.984375 2.359375 -0.984375 4.671875l0 16.90625l-3.53125 0l0 -28.90625l3.53125 0l0 5.0l0.109375 0q1.0 -2.59375 3.546875 -4.203125q2.546875 -1.609375 5.71875 -1.609375zm42.65625 -10.265625l0 39.984375l-3.25 0l0 -5.5l-0.109375 0q-1.234375 2.90625 -4.21875 4.625q-2.984375 1.71875 -6.125 1.71875q-5.90625 0 -9.4375 -4.15625q-3.515625 -4.15625 -3.515625 -11.125q0 -6.921875 3.5 -11.09375q3.5 -4.1875 9.453125 -4.1875q3.390625 0 6.15625 1.640625q2.765625 1.640625 3.90625 4.671875l0.109375 0l0 -16.578125l3.53125 0zm-23.140625 25.546875q0 5.359375 2.53125 8.828125q2.53125 3.46875 6.9375 3.46875q4.84375 0 7.484375 -3.4375q2.65625 -3.453125 2.65625 -8.859375q0 -5.4375 -2.640625 -8.875q-2.640625 -3.453125 -7.53125 -3.453125q-4.296875 0 -6.875 3.40625q-2.5625 3.390625 -2.5625 8.921875z" fill-rule="nonzero"/><path fill="#3d85c6" d="m490.46066 297.5381q5.765625 0 9.15625 2.46875q3.390625 2.453125 3.390625 7.296875q0 3.140625 -1.90625 5.703125q-1.890625 2.5625 -5.03125 3.296875l0 0.109375q3.828125 0.484375 6.140625 3.140625q2.3125 2.65625 2.3125 6.59375q0 5.609375 -3.65625 8.5q-3.65625 2.875 -10.375 2.875l-17.234375 0l0 -39.984375l17.203125 0zm-0.046875 17.53125q3.84375 0 6.3125 -1.828125q2.484375 -1.828125 2.484375 -4.984375q0 -3.765625 -2.3125 -5.609375q-2.3125 -1.84375 -6.765625 -1.84375l-13.046875 0l0 14.265625l13.328125 0zm0.046875 19.203125q5.0 0 7.625 -2.03125q2.625 -2.046875 2.625 -6.203125q0 -3.828125 -2.75 -5.765625q-2.734375 -1.953125 -7.796875 -1.953125l-13.078125 0l0 15.953125l13.375 0zm31.695343 -26.46875q6.171875 0 9.921875 4.296875q3.75 4.28125 3.75 10.984375q0 4.046875 -1.546875 7.546875q-1.546875 3.5 -4.703125 5.625q-3.15625 2.109375 -7.421875 2.109375q-6.125 0 -9.890625 -4.296875q-3.7500305 -4.3125 -3.7500305 -10.984375q0 -6.703125 3.7344055 -10.984375q3.75 -4.296875 9.90625 -4.296875zm-10.125 15.28125q0 5.109375 2.765625 8.703125q2.765625 3.59375 7.359375 3.59375q4.59375 0 7.359375 -3.609375q2.78125 -3.609375 2.78125 -8.6875q0 -5.09375 -2.78125 -8.703125q-2.765625 -3.625 -7.421875 -3.625q-4.484375 0 -7.28125 3.578125q-2.78125 3.578125 -2.78125 8.75zm41.26953 -15.28125q6.171875 0 9.921875 4.296875q3.75 4.28125 3.75 10.984375q0 4.046875 -1.546875 7.546875q-1.546875 3.5 -4.703125 5.625q-3.15625 2.109375 -7.421875 2.109375q-6.125 0 -9.890625 -4.296875q-3.75 -4.3125 -3.75 -10.984375q0 -6.703125 3.734375 -10.984375q3.75 -4.296875 9.90625 -4.296875zm-10.125 15.28125q0 5.109375 2.765625 8.703125q2.765625 3.59375 7.359375 3.59375q4.59375 0 7.359375 -3.609375q2.78125 -3.609375 2.78125 -8.6875q0 -5.09375 -2.78125 -8.703125q-2.765625 -3.625 -7.421875 -3.625q-4.484375 0 -7.28125 3.578125q-2.78125 3.578125 -2.78125 8.75zm39.33203 -15.28125q4.703125 0 7.5 2.40625q2.796875 2.40625 3.078125 6.859375l-3.53125 0q-0.15625 -3.0625 -2.234375 -4.6875q-2.0625 -1.625 -5.34375 -1.625q-3.0625 0 -4.953125 1.3125q-1.875 1.3125 -1.875 3.65625q0 1.859375 1.671875 3.078125q1.6875 1.21875 4.34375 1.8125l6.046875 1.34375q2.96875 0.6875 4.921875 2.6875q1.96875 1.984375 1.96875 5.03125q0 4.046875 -3.328125 6.375q-3.328125 2.3125 -8.296875 2.3125q-5.359375 0 -8.40625 -2.5625q-3.03125 -2.578125 -3.46875 -7.640625l3.5625 0q0.1875 3.421875 2.5 5.328125q2.3125 1.890625 6.0 1.890625q3.28125 0 5.59375 -1.46875q2.3125 -1.484375 2.3125 -4.015625q0 -1.953125 -1.5 -3.234375q-1.484375 -1.28125 -4.953125 -2.046875l-4.4375 -0.984375q-3.796875 -0.828125 -5.9375 -2.65625q-2.125 -1.828125 -2.125 -5.078125q0 -3.75 3.0625 -5.921875q3.0625 -2.171875 7.828125 -2.171875zm22.277344 -7.859375l0 8.671875l5.875 0l0 2.984375l-5.875 0l0 19.71875q0 2.203125 0.828125 2.890625q0.84375 0.6875 2.15625 0.6875q0.546875 0 1.296875 -0.03125q0.75 -0.046875 1.59375 -0.140625l0 3.015625q-0.765625 0.0625 -1.546875 0.078125q-0.765625 0.03125 -1.5625 0.03125q-3.53125 0 -4.921875 -1.34375q-1.375 -1.34375 -1.375 -4.8125l0 -20.09375l-5.046875 0l0 -2.984375l5.046875 0l0 -8.671875l3.53125 0zm21.761719 7.859375q5.890625 0 9.296875 4.265625q3.421875 4.265625 3.421875 11.375l0 0.5625l-22.234375 0q0.09375 5.03125 2.703125 8.203125q2.609375 3.171875 6.8125 3.171875q3.53125 0 5.796875 -1.8125q2.28125 -1.8125 3.28125 -5.5625l3.53125 0q-1.234375 5.21875 -4.328125 7.796875q-3.078125 2.5625 -8.28125 2.5625q-6.125 0 -9.578125 -4.09375q-3.453125 -4.109375 -3.453125 -11.1875q0 -6.734375 3.46875 -11.0q3.46875 -4.28125 9.5625 -4.28125zm9.1875 13.25q-0.125 -4.28125 -2.6875 -7.28125q-2.5625 -3.015625 -6.546875 -3.015625q-3.75 0 -6.3125 2.796875q-2.546875 2.78125 -3.15625 7.5l18.703125 0zm21.691406 -12.8125l0.875 0l0 3.515625l-0.40625 0q-4.6875 0 -7.515625 3.0q-2.828125 3.0 -2.828125 7.453125l0 15.3125l-3.53125 0l0 -28.90625l3.265625 0l0 6.78125l0.109375 0q1.3125 -3.390625 3.96875 -5.265625q2.671875 -1.890625 6.0625 -1.890625z" fill-rule="nonzero"/></g></svg>