<svg version="1.1" viewBox="0.0 0.0 960.0 379.84251968503935" fill="none" stroke="none" stroke-linecap="square" stroke-miterlimit="10" xmlns:xlink="http://www.w3.org/1999/xlink" xmlns="http://www.w3.org/2000/svg"><clipPath id="p.0"><path d="m0 0l960.0 0l0 379.84253l-960.0 0l0 -379.84253z" clip-rule="nonzero"/></clipPath><g clip-path="url(#p.0)"><path fill="#ffffff" d="m0 0l960.0 0l0 379.84253l-960.0 0z" fill-rule="evenodd"/><path fill="#0b5394" d="m177.84132 232.26198l137.3387 -9.032379l137.33871 9.032379l-137.33871 9.032394z" fill-rule="evenodd"/><path stroke="#ffffff" stroke-width="1.0" stroke-linejoin="round" stroke-linecap="butt" d="m177.84132 232.26198l137.3387 -9.032379l137.33871 9.032379l-137.33871 9.032394z" fill-rule="evenodd"/><path fill="#000000" fill-opacity="0.0" d="m31.533148 321.28232c7.10404 -3.2879944 32.06653 -20.550934 42.62423 -19.727936c10.557701 0.8229675 10.361 24.42508 20.722 24.665833c10.361 0.24075317 31.428368 -21.285004 41.444 -23.221313c10.015625 -1.9362793 10.360992 55.62207 18.649796 11.603577c8.288803 -44.018494 7.598068 -276.9199 31.083008 -275.7145c23.484924 1.2053604 86.14859 238.00844 109.8266 282.9467c23.678009 44.938232 21.067352 -14.470642 32.241455 -13.3172c11.174133 1.1534424 23.622742 20.289703 34.803192 20.237793c11.18045 -0.051940918 22.23761 -20.237793 32.27954 -20.549377c10.041931 -0.31155396 23.309967 15.56662 27.971985 18.679962" fill-rule="evenodd"/><path stroke="#0b5394" stroke-width="8.0" stroke-linejoin="round" stroke-linecap="butt" d="m31.533148 321.28232c7.10404 -3.2879944 32.06653 -20.550934 42.62423 -19.727936c10.557701 0.8229675 10.361 24.42508 20.722 24.665833c10.361 0.24075317 31.428368 -21.285004 41.444 -23.221313c10.015625 -1.9362793 10.360992 55.62207 18.649796 11.603577c8.288803 -44.018494 7.598068 -276.9199 31.083008 -275.7145c23.484924 1.2053604 86.14859 238.00844 109.8266 282.9467c23.678009 44.938232 21.067352 -14.470642 32.241455 -13.3172c11.174133 1.1534424 23.622742 20.289703 34.803192 20.237793c11.18045 -0.051940918 22.23761 -20.237793 32.27954 -20.549377c10.041931 -0.31155396 23.309967 15.56662 27.971985 18.679962" fill-rule="evenodd"/><path fill="#000000" fill-opacity="0.0" d="m31.533148 321.65894c7.10404 -2.817627 32.06653 -17.610992 42.62423 -16.905731c10.557701 0.7052307 10.361 20.930939 20.722 21.137238c10.361 0.20632935 31.428368 -18.240051 41.444 -19.899353c10.015625 -1.6593018 10.360992 47.66501 18.649796 9.9436035c8.288803 -37.721405 7.598068 -237.3049 31.083008 -236.27197c23.484924 1.0329285 86.086945 204.27078 109.8266 242.46954c23.739655 38.19876 21.437195 -14.265442 32.611298 -13.277039c11.174133 0.98843384 23.314545 18.941284 34.43335 19.207611c11.118805 0.2663269 22.23761 -17.342682 32.27954 -17.60965c10.041931 -0.2669983 23.309967 13.339722 27.971985 16.00766" fill-rule="evenodd"/><path stroke="#3d85c6" stroke-width="8.0" stroke-linejoin="round" stroke-linecap="butt" d="m31.533148 321.65894c7.10404 -2.817627 32.06653 -17.610992 42.62423 -16.905731c10.557701 0.7052307 10.361 20.930939 20.722 21.137238c10.361 0.20632935 31.428368 -18.240051 41.444 -19.899353c10.015625 -1.6593018 10.360992 47.66501 18.649796 9.9436035c8.288803 -37.721405 7.598068 -237.3049 31.083008 -236.27197c23.484924 1.0329285 86.086945 204.27078 109.8266 242.46954c23.739655 38.19876 21.437195 -14.265442 32.611298 -13.277039c11.174133 0.98843384 23.314545 18.941284 34.43335 19.207611c11.118805 0.2663269 22.23761 -17.342682 32.27954 -17.60965c10.041931 -0.2669983 23.309967 13.339722 27.971985 16.00766" fill-rule="evenodd"/><path fill="#000000" fill-opacity="0.0" d="m31.533148 326.34326c7.0723133 -3.087494 31.876165 -19.113007 42.43387 -18.524963c10.557701 0.58807373 10.465248 21.774292 20.912361 22.053314c10.447113 0.27902222 31.754692 -18.995117 41.770325 -20.379211c10.01564 -1.3840942 10.089066 42.901917 18.323471 12.0746155c8.234421 -30.827301 7.598068 -197.89972 31.083008 -197.0385c23.484924 0.8612213 86.20117 170.82045 109.8266 202.2058c23.625427 31.385345 20.751923 -14.718323 31.926025 -13.893707c11.174103 0.82458496 23.807617 18.841309 35.11862 18.841309c11.310974 0 22.705353 -18.618683 32.747284 -18.841309c10.041931 -0.22262573 22.920197 14.587952 27.504242 17.505554" fill-rule="evenodd"/><path stroke="#6fa8dc" stroke-width="8.0" stroke-linejoin="round" stroke-linecap="butt" d="m31.533148 326.34326c7.0723133 -3.087494 31.876165 -19.113007 42.43387 -18.524963c10.557701 0.58807373 10.465248 21.774292 20.912361 22.053314c10.447113 0.27902222 31.754692 -18.995117 41.770325 -20.379211c10.01564 -1.3840942 10.089066 42.901917 18.323471 12.0746155c8.234421 -30.827301 7.598068 -197.89972 31.083008 -197.0385c23.484924 0.8612213 86.20117 170.82045 109.8266 202.2058c23.625427 31.385345 20.751923 -14.718323 31.926025 -13.893707c11.174103 0.82458496 23.807617 18.841309 35.11862 18.841309c11.310974 0 22.705353 -18.618683 32.747284 -18.841309c10.041931 -0.22262573 22.920197 14.587952 27.504242 17.505554" fill-rule="evenodd"/><path fill="#0b5394" d="m12.0 232.25931l62.710106 -9.032394l62.710106 9.032394l-62.710106 9.032379z" fill-rule="evenodd"/><path stroke="#ffffff" stroke-width="1.0" stroke-linejoin="round" stroke-linecap="butt" d="m12.0 232.25931l62.710106 -9.032394l62.710106 9.032394l-62.710106 9.032379z" fill-rule="evenodd"/><path fill="#0b5394" d="m131.82417 232.76416l25.111542 -5.1112213l5.392395 -23.80217l5.3923798 23.80217l25.111557 5.1112213l-25.111557 5.111206l-5.3923798 23.802185l-5.392395 -23.802185z" fill-rule="evenodd"/><path stroke="#ffffff" stroke-width="2.0" stroke-linejoin="round" stroke-linecap="butt" d="m131.82417 232.76416l25.111542 -5.1112213l5.392395 -23.80217l5.3923798 23.80217l25.111557 5.1112213l-25.111557 5.111206l-5.3923798 23.802185l-5.392395 -23.802185z" fill-rule="evenodd"/><path fill="#000000" fill-opacity="0.0" d="m432.05975 29.700787l596.4095 0l0 307.40158l-596.4095 0z" fill-rule="evenodd"/><path fill="#0b5394" d="m504.85663 64.96016l0 14.0625l-22.859375 0l0 62.078125l-16.71875 0l0 -62.078125l-22.8125 0l0 -14.0625l62.390625 0zm62.228027 0l0 14.0625l-36.765625 0l0 17.609375l31.875 0l0 13.015625l-31.875 0l0 31.453125l-16.765625 0l0 -76.140625l53.53125 0zm46.09796 0q11.65625 0 17.703125 4.609375q6.046875 4.609375 6.046875 14.1875q0 5.890625 -2.71875 9.75q-2.703125 3.84375 -7.59375 6.1875q6.921875 2.09375 10.4375 7.046875q3.515625 4.9375 3.515625 12.28125q0 10.515625 -7.609375 16.296875q-7.59375 5.78125 -18.796875 5.78125l-37.390625 0l0 -76.140625l36.40625 0zm-2.40625 30.828125q4.484375 0 7.21875 -2.28125q2.734375 -2.296875 2.734375 -6.78125q0 -4.46875 -2.8125 -6.609375q-2.8125 -2.140625 -8.28125 -2.140625l-16.09375 0l0 17.8125l17.234375 0zm1.09375 32.296875q5.578125 0 8.75 -2.453125q3.1875 -2.453125 3.1875 -7.546875q0 -5.359375 -3.0 -8.125q-3.0 -2.765625 -8.671875 -2.765625l-18.59375 0l0 20.890625l18.328125 0zm65.20624 -43.59375q12.96875 0 20.78125 8.0q7.8125 7.984375 7.8125 21.109375q0 13.171875 -7.890625 21.09375q-7.890625 7.921875 -20.703125 7.921875q-12.8125 0 -20.65625 -7.96875q-7.828125 -7.96875 -7.828125 -21.046875q0 -13.0625 7.703125 -21.078125q7.71875 -8.03125 20.78125 -8.03125zm-13.328125 29.109375q0 8.703125 3.5625 13.15625q3.578125 4.453125 9.765625 4.453125q6.453125 0 9.9375 -4.609375q3.5 -4.609375 3.5 -13.0q0 -8.21875 -3.390625 -12.953125q-3.375 -4.75 -10.15625 -4.75q-6.078125 0 -9.65625 4.40625q-3.5625 4.390625 -3.5625 13.296875zm78.47797 -29.109375q12.96875 0 20.78125 8.0q7.8125 7.984375 7.8125 21.109375q0 13.171875 -7.890625 21.09375q-7.890625 7.921875 -20.703125 7.921875q-12.8125 0 -20.65625 -7.96875q-7.828125 -7.96875 -7.828125 -21.046875q0 -13.0625 7.703125 -21.078125q7.71875 -8.03125 20.78125 -8.03125zm-13.328125 29.109375q0 8.703125 3.5625 13.15625q3.578125 4.453125 9.765625 4.453125q6.453125 0 9.9375 -4.609375q3.5 -4.609375 3.5 -13.0q0 -8.21875 -3.390625 -12.953125q-3.375 -4.75 -10.15625 -4.75q-6.078125 0 -9.65625 4.40625q-3.5625 4.390625 -3.5625 13.296875zm74.30615 -29.109375q11.25 0 17.375 4.453125q6.125 4.453125 6.953125 13.09375l-14.421875 0q-0.3125 -3.90625 -2.921875 -5.671875q-2.609375 -1.765625 -7.453125 -1.765625q-4.359375 0 -6.375 1.296875q-2.0 1.296875 -2.0 3.796875q0 2.5625 2.625 4.203125q2.640625 1.640625 10.59375 3.140625q12.71875 2.453125 17.0625 6.3125q4.34375 3.84375 4.34375 10.09375q0 9.375 -6.84375 14.28125q-6.84375 4.890625 -18.3125 4.890625q-11.453125 0 -18.453125 -4.875q-7.0 -4.875 -7.46875 -14.5625l14.421875 0q0 4.375 3.296875 6.828125q3.3125 2.453125 8.3125 2.453125q4.421875 0 7.1875 -1.90625q2.765625 -1.90625 2.765625 -5.125q0 -2.875 -3.59375 -4.6875q-3.59375 -1.828125 -13.171875 -3.8125q-9.484375 -1.875 -13.703125 -5.359375q-4.21875 -3.484375 -4.21875 -9.421875q0 -8.75 6.1875 -13.203125q6.203125 -4.453125 17.8125 -4.453125zm53.864197 -15.046875l0 16.5l11.078125 0l0 10.15625l-11.078125 0l0 27.65625q0 3.390625 1.265625 4.71875q1.28125 1.328125 5.125 1.328125q1.3125 0 2.5 -0.109375q1.203125 -0.109375 2.1875 -0.3125l0 11.828125q-1.875 0.3125 -4.1875 0.40625q-2.3125 0.109375 -4.5625 0.109375q-9.828125 0 -13.65625 -3.359375q-3.828125 -3.359375 -3.828125 -9.40625l0 -32.859375l-9.171875 0l0 -10.15625l9.171875 0l0 -16.5l15.15625 0z" fill-rule="nonzero"/><path fill="#000000" fill-opacity="0.0" d="m436.06036 166.14043l635.5905 0l0 183.99998l-635.5905 0z" fill-rule="evenodd"/><path fill="#6fa8dc" d="m476.48224 188.91605l0 3.265625l-13.953125 0l0 36.71875l-3.796875 0l0 -36.71875l-13.953125 0l0 -3.265625l31.703125 0zm5.3359375 0l0 5.671875l-3.53125 0l0 -5.671875l3.53125 0zm0 11.078125l0 28.90625l-3.53125 0l0 -28.90625l3.53125 0zm19.660156 -0.8125q3.0 0 5.21875 1.4375q2.21875 1.421875 3.0625 4.1875q1.34375 -2.765625 3.75 -4.1875q2.421875 -1.4375 5.46875 -1.4375q4.8125 0 7.171875 2.5625q2.359375 2.546875 2.359375 7.296875l0 19.859375l-3.515625 0l0 -19.65625q0 -3.671875 -1.640625 -5.390625q-1.640625 -1.71875 -5.171875 -1.71875q-3.859375 0 -5.859375 2.65625q-1.984375 2.640625 -1.984375 7.484375l0 16.625l-3.5625 0l0 -19.796875q0 -3.25 -1.5 -5.109375q-1.5 -1.859375 -4.546875 -1.859375q-4.203125 0 -6.40625 2.859375q-2.203125 2.84375 -2.203125 7.53125l0 16.375l-3.53125 0l0 -28.90625l3.265625 0l0 4.875l0.15625 0q1.5 -2.84375 3.859375 -4.265625q2.375 -1.421875 5.609375 -1.421875zm45.351562 0q5.890625 0 9.296875 4.265625q3.421875 4.265625 3.421875 11.375l0 0.5625l-22.234375 0q0.09375 5.03125 2.703125 8.203125q2.609375 3.171875 6.8125 3.171875q3.53125 0 5.796875 -1.8125q2.28125 -1.8125 3.28125 -5.5625l3.53125 0q-1.234375 5.21875 -4.328125 7.796875q-3.078125 2.5625 -8.28125 2.5625q-6.125 0 -9.578125 -4.09375q-3.453125 -4.109375 -3.453125 -11.1875q0 -6.734375 3.46875 -11.0q3.46875 -4.28125 9.5625 -4.28125zm9.1875 13.25q-0.125 -4.28125 -2.6875 -7.28125q-2.5625 -3.015625 -6.546875 -3.015625q-3.75 0 -6.3125 2.796875q-2.546875 2.78125 -3.15625 7.5l18.703125 0zm18.550781 -13.25q4.703125 0 7.5 2.40625q2.796875 2.40625 3.078125 6.859375l-3.53125 0q-0.15625 -3.0625 -2.234375 -4.6875q-2.0625 -1.625 -5.34375 -1.625q-3.0625 0 -4.953125 1.3125q-1.875 1.3125 -1.875 3.65625q0 1.859375 1.671875 3.078125q1.6875 1.21875 4.34375 1.8125l6.046875 1.34375q2.96875 0.6875 4.921875 2.6875q1.96875 1.984375 1.96875 5.03125q0 4.046875 -3.328125 6.375q-3.328125 2.3125 -8.296875 2.3125q-5.359375 0 -8.40625 -2.5625q-3.03125 -2.578125 -3.46875 -7.640625l3.5625 0q0.1875 3.421875 2.5 5.328125q2.3125 1.890625 6.0 1.890625q3.28125 0 5.59375 -1.46875q2.3125 -1.484375 2.3125 -4.015625q0 -1.953125 -1.5 -3.234375q-1.484375 -1.28125 -4.953125 -2.046875l-4.4375 -0.984375q-3.796875 -0.828125 -5.9375 -2.65625q-2.125 -1.828125 -2.125 -5.078125q0 -3.75 3.0625 -5.921875q3.0625 -2.171875 7.828125 -2.171875zm30.339844 0q6.078125 0 9.53125 4.234375q3.46875 4.234375 3.46875 11.046875q0 6.75 -3.484375 11.015625q-3.46875 4.265625 -9.484375 4.265625q-3.4375 0 -6.21875 -1.6875q-2.78125 -1.703125 -3.84375 -4.65625l-0.109375 0l0 16.1875l-3.53125 0l0 -39.59375l3.265625 0l0 5.5l0.109375 0q1.28125 -3.03125 4.03125 -4.671875q2.765625 -1.640625 6.265625 -1.640625zm-10.140625 15.25q0 5.5 2.640625 8.921875q2.640625 3.40625 7.5 3.40625q4.4375 0 6.953125 -3.5q2.515625 -3.515625 2.515625 -8.796875q0 -5.3125 -2.515625 -8.8125q-2.515625 -3.515625 -7.03125 -3.515625q-4.890625 0 -7.484375 3.09375q-2.578125 3.078125 -2.578125 9.203125zm40.828125 -15.25q6.171875 0 9.921875 4.296875q3.75 4.28125 3.75 10.984375q0 4.046875 -1.546875 7.546875q-1.546875 3.5 -4.703125 5.625q-3.15625 2.109375 -7.421875 2.109375q-6.125 0 -9.890625 -4.296875q-3.75 -4.3125 -3.75 -10.984375q0 -6.703125 3.734375 -10.984375q3.75 -4.296875 9.90625 -4.296875zm-10.125 15.28125q0 5.109375 2.765625 8.703125q2.765625 3.59375 7.359375 3.59375q4.59375 0 7.359375 -3.609375q2.78125 -3.609375 2.78125 -8.6875q0 -5.09375 -2.78125 -8.703125q-2.765625 -3.625 -7.421875 -3.625q-4.484375 0 -7.28125 3.578125q-2.78125 3.578125 -2.78125 8.75zm34.67578 -23.140625l0 8.671875l5.875 0l0 2.984375l-5.875 0l0 19.71875q0 2.203125 0.828125 2.890625q0.84375 0.6875 2.15625 0.6875q0.546875 0 1.296875 -0.03125q0.75 -0.046875 1.59375 -0.140625l0 3.015625q-0.765625 0.0625 -1.546875 0.078125q-0.765625 0.03125 -1.5625 0.03125q-3.53125 0 -4.921875 -1.34375q-1.375 -1.34375 -1.375 -4.8125l0 -20.09375l-5.046875 0l0 -2.984375l5.046875 0l0 -8.671875l3.53125 0zm52.55078 -2.40625l0 3.265625l-21.546875 0l0 14.4375l19.140625 0l0 3.25l-19.140625 0l0 19.03125l-3.828125 0l0 -39.984375l25.375 0zm15.484375 10.703125l0.875 0l0 3.515625l-0.40625 0q-4.6875 0 -7.515625 3.0q-2.828125 3.0 -2.828125 7.453125l0 15.3125l-3.53125 0l0 -28.90625l3.265625 0l0 6.78125l0.109375 0q1.3125 -3.390625 3.96875 -5.265625q2.671875 -1.890625 6.0625 -1.890625zm15.75 -0.4375q6.171875 0 9.921875 4.296875q3.75 4.28125 3.75 10.984375q0 4.046875 -1.546875 7.546875q-1.546875 3.5 -4.703125 5.625q-3.15625 2.109375 -7.421875 2.109375q-6.125 0 -9.890625 -4.296875q-3.75 -4.3125 -3.75 -10.984375q0 -6.703125 3.734375 -10.984375q3.75 -4.296875 9.90625 -4.296875zm-10.125 15.28125q0 5.109375 2.765625 8.703125q2.765625 3.59375 7.359375 3.59375q4.59375 0 7.359375 -3.609375q2.78125 -3.609375 2.78125 -8.6875q0 -5.09375 -2.78125 -8.703125q-2.765625 -3.625 -7.421875 -3.625q-4.484375 0 -7.28125 3.578125q-2.78125 3.578125 -2.78125 8.75zm41.92578 -15.28125q5.546875 0 8.046875 2.703125q2.5 2.703125 2.5 8.140625l0 18.875l-3.515625 0l0 -18.265625q0 -4.1875 -1.828125 -6.34375q-1.8125 -2.15625 -5.5 -2.15625q-2.90625 0 -5.0 1.40625q-2.09375 1.40625 -3.09375 3.78125q-0.984375 2.359375 -0.984375 4.671875l0 16.90625l-3.53125 0l0 -28.90625l3.53125 0l0 5.0l0.109375 0q1.0 -2.59375 3.546875 -4.203125q2.546875 -1.609375 5.71875 -1.609375zm22.828125 -7.859375l0 8.671875l5.875 0l0 2.984375l-5.875 0l0 19.71875q0 2.203125 0.828125 2.890625q0.84375 0.6875 2.15625 0.6875q0.546875 0 1.296875 -0.03125q0.75 -0.046875 1.59375 -0.140625l0 3.015625q-0.765625 0.0625 -1.546875 0.078125q-0.765625 0.03125 -1.5625 0.03125q-3.53125 0 -4.921875 -1.34375q-1.375 -1.34375 -1.375 -4.8125l0 -20.09375l-5.046875 0l0 -2.984375l5.046875 0l0 -8.671875l3.53125 0zm24.960938 20.546875l0 3.25l-14.0 0l0 -3.25l14.0 0zm18.320312 -12.6875q5.890625 0 9.296875 4.265625q3.421875 4.265625 3.421875 11.375l0 0.5625l-22.234375 0q0.09375 5.03125 2.703125 8.203125q2.609375 3.171875 6.8125 3.171875q3.53125 0 5.796875 -1.8125q2.28125 -1.8125 3.28125 -5.5625l3.53125 0q-1.234375 5.21875 -4.328125 7.796875q-3.078125 2.5625 -8.28125 2.5625q-6.125 0 -9.578125 -4.09375q-3.453125 -4.109375 -3.453125 -11.1875q0 -6.734375 3.46875 -11.0q3.46875 -4.28125 9.5625 -4.28125zm9.1875 13.25q-0.125 -4.28125 -2.6875 -7.28125q-2.5625 -3.015625 -6.546875 -3.015625q-3.75 0 -6.3125 2.796875q-2.546875 2.78125 -3.15625 7.5l18.703125 0zm21.144531 -13.25q5.546875 0 8.046875 2.703125q2.5 2.703125 2.5 8.140625l0 18.875l-3.515625 0l0 -18.265625q0 -4.1875 -1.828125 -6.34375q-1.8125 -2.15625 -5.5 -2.15625q-2.90625 0 -5.0 1.40625q-2.09375 1.40625 -3.09375 3.78125q-0.984375 2.359375 -0.984375 4.671875l0 16.90625l-3.53125 0l0 -28.90625l3.53125 0l0 5.0l0.109375 0q1.0 -2.59375 3.546875 -4.203125q2.546875 -1.609375 5.71875 -1.609375zm42.65625 -10.265625l0 39.984375l-3.25 0l0 -5.5l-0.109375 0q-1.234375 2.90625 -4.21875 4.625q-2.984375 1.71875 -6.125 1.71875q-5.90625 0 -9.4375 -4.15625q-3.515625 -4.15625 -3.515625 -11.125q0 -6.921875 3.5 -11.09375q3.5 -4.1875 9.453125 -4.1875q3.390625 0 6.15625 1.640625q2.765625 1.640625 3.90625 4.671875l0.109375 0l0 -16.578125l3.53125 0zm-23.140625 25.546875q0 5.359375 2.53125 8.828125q2.53125 3.46875 6.9375 3.46875q4.84375 0 7.484375 -3.4375q2.65625 -3.453125 2.65625 -8.859375q0 -5.4375 -2.640625 -8.875q-2.640625 -3.453125 -7.53125 -3.453125q-4.296875 0 -6.875 3.40625q-2.5625 3.390625 -2.5625 8.921875z" fill-rule="nonzero"/><path fill="#6fa8dc" d="m466.2791 255.91605q5.765625 0 9.15625 2.46875q3.390625 2.453125 3.390625 7.296875q0 3.140625 -1.90625 5.703125q-1.890625 2.5625 -5.03125 3.296875l0 0.109375q3.828125 0.484375 6.140625 3.140625q2.3125 2.65625 2.3125 6.59375q0 5.609375 -3.65625 8.5q-3.65625 2.875 -10.375 2.875l-17.234375 0l0 -39.984375l17.203125 0zm-0.046875 17.53125q3.84375 0 6.3125 -1.828125q2.484375 -1.828125 2.484375 -4.984375q0 -3.765625 -2.3125 -5.609375q-2.3125 -1.84375 -6.765625 -1.84375l-13.046875 0l0 14.265625l13.328125 0zm0.046875 19.203125q5.0 0 7.625 -2.03125q2.625 -2.046875 2.625 -6.203125q0 -3.828125 -2.75 -5.765625q-2.734375 -1.953125 -7.796875 -1.953125l-13.078125 0l0 15.953125l13.375 0zm31.695312 -26.46875q6.171875 0 9.921875 4.296875q3.75 4.28125 3.75 10.984375q0 4.046875 -1.546875 7.546875q-1.546875 3.5 -4.703125 5.625q-3.15625 2.109375 -7.421875 2.109375q-6.125 0 -9.890625 -4.296875q-3.75 -4.3125 -3.75 -10.984375q0 -6.703125 3.734375 -10.984375q3.75 -4.296875 9.90625 -4.296875zm-10.125 15.28125q0 5.109375 2.765625 8.703125q2.765625 3.59375 7.359375 3.59375q4.59375 0 7.359375 -3.609375q2.78125 -3.609375 2.78125 -8.6875q0 -5.09375 -2.78125 -8.703125q-2.765625 -3.625 -7.421875 -3.625q-4.484375 0 -7.28125 3.578125q-2.78125 3.578125 -2.78125 8.75zm41.26953 -15.28125q6.171875 0 9.921875 4.296875q3.75 4.28125 3.75 10.984375q0 4.046875 -1.546875 7.546875q-1.546875 3.5 -4.703125 5.625q-3.15625 2.109375 -7.421875 2.109375q-6.125 0 -9.890625 -4.296875q-3.75 -4.3125 -3.75 -10.984375q0 -6.703125 3.734375 -10.984375q3.75 -4.296875 9.90625 -4.296875zm-10.125 15.28125q0 5.109375 2.765625 8.703125q2.765625 3.59375 7.359375 3.59375q4.59375 0 7.359375 -3.609375q2.78125 -3.609375 2.78125 -8.6875q0 -5.09375 -2.78125 -8.703125q-2.765625 -3.625 -7.421875 -3.625q-4.484375 0 -7.28125 3.578125q-2.78125 3.578125 -2.78125 8.75zm39.33203 -15.28125q4.703125 0 7.5 2.40625q2.796875 2.40625 3.078125 6.859375l-3.53125 0q-0.15625 -3.0625 -2.234375 -4.6875q-2.0625 -1.625 -5.34375 -1.625q-3.0625 0 -4.953125 1.3125q-1.875 1.3125 -1.875 3.65625q0 1.859375 1.671875 3.078125q1.6875 1.21875 4.34375 1.8125l6.046875 1.34375q2.96875 0.6875 4.921875 2.6875q1.96875 1.984375 1.96875 5.03125q0 4.046875 -3.328125 6.375q-3.328125 2.3125 -8.296875 2.3125q-5.359375 0 -8.40625 -2.5625q-3.03125 -2.578125 -3.46875 -7.640625l3.5625 0q0.1875 3.421875 2.5 5.328125q2.3125 1.890625 6.0 1.890625q3.28125 0 5.59375 -1.46875q2.3125 -1.484375 2.3125 -4.015625q0 -1.953125 -1.5 -3.234375q-1.484375 -1.28125 -4.953125 -2.046875l-4.4375 -0.984375q-3.796875 -0.828125 -5.9375 -2.65625q-2.125 -1.828125 -2.125 -5.078125q0 -3.75 3.0625 -5.921875q3.0625 -2.171875 7.828125 -2.171875zm22.277344 -7.859375l0 8.671875l5.875 0l0 2.984375l-5.875 0l0 19.71875q0 2.203125 0.828125 2.890625q0.84375 0.6875 2.15625 0.6875q0.546875 0 1.296875 -0.03125q0.75 -0.046875 1.59375 -0.140625l0 3.015625q-0.765625 0.0625 -1.546875 0.078125q-0.765625 0.03125 -1.5625 0.03125q-3.53125 0 -4.921875 -1.34375q-1.375 -1.34375 -1.375 -4.8125l0 -20.09375l-5.046875 0l0 -2.984375l5.046875 0l0 -8.671875l3.53125 0zm21.761719 7.859375q5.890625 0 9.296875 4.265625q3.421875 4.265625 3.421875 11.375l0 0.5625l-22.234375 0q0.09375 5.03125 2.703125 8.203125q2.609375 3.171875 6.8125 3.171875q3.53125 0 5.796875 -1.8125q2.28125 -1.8125 3.28125 -5.5625l3.53125 0q-1.234375 5.21875 -4.328125 7.796875q-3.078125 2.5625 -8.28125 2.5625q-6.125 0 -9.578125 -4.09375q-3.453125 -4.109375 -3.453125 -11.1875q0 -6.734375 3.46875 -11.0q3.46875 -4.28125 9.5625 -4.28125zm9.1875 13.25q-0.125 -4.28125 -2.6875 -7.28125q-2.5625 -3.015625 -6.546875 -3.015625q-3.75 0 -6.3125 2.796875q-2.546875 2.78125 -3.15625 7.5l18.703125 0zm21.691406 -12.8125l0.875 0l0 3.515625l-0.40625 0q-4.6875 0 -7.515625 3.0q-2.828125 3.0 -2.828125 7.453125l0 15.3125l-3.53125 0l0 -28.90625l3.265625 0l0 6.78125l0.109375 0q1.3125 -3.390625 3.96875 -5.265625q2.671875 -1.890625 6.0625 -1.890625z" fill-rule="nonzero"/></g></svg>